<mxfile host="app.diagrams.net" modified="2024-05-22T14:20:09.014Z" agent="Mozilla/5.0 (Windows NT 10.0; Win64; x64) AppleWebKit/537.36 (KHTML, like Gecko) Chrome/124.0.0.0 Safari/537.36" etag="ulThnDe_HPrCmYnambal" version="24.4.4" type="device">
  <diagram name="2.2" id="6uA1fQvNX1fIbqmeOwzg">
    <mxGraphModel dx="2550" dy="1742" grid="1" gridSize="10" guides="1" tooltips="1" connect="1" arrows="1" fold="1" page="0" pageScale="1" pageWidth="827" pageHeight="1169" math="0" shadow="0">
      <root>
        <mxCell id="0" />
        <mxCell id="1" parent="0" />
        <mxCell id="oqmiWPjRUzapbf_sIHo5-95" value="user_account" style="rounded=1;arcSize=10;whiteSpace=wrap;html=1;align=center;" vertex="1" parent="1">
          <mxGeometry x="220" y="-160" width="100" height="40" as="geometry" />
        </mxCell>
        <mxCell id="oqmiWPjRUzapbf_sIHo5-96" value="password" style="ellipse;whiteSpace=wrap;html=1;align=center;" vertex="1" parent="1">
          <mxGeometry x="280" y="-350" width="100" height="40" as="geometry" />
        </mxCell>
        <mxCell id="oqmiWPjRUzapbf_sIHo5-99" value="email" style="ellipse;whiteSpace=wrap;html=1;align=center;" vertex="1" parent="1">
          <mxGeometry x="340" y="-300" width="100" height="40" as="geometry" />
        </mxCell>
        <mxCell id="oqmiWPjRUzapbf_sIHo5-101" style="edgeStyle=orthogonalEdgeStyle;rounded=0;orthogonalLoop=1;jettySize=auto;html=1;exitX=0.5;exitY=1;exitDx=0;exitDy=0;entryX=0.89;entryY=0.007;entryDx=0;entryDy=0;entryPerimeter=0;endArrow=none;endFill=0;" edge="1" parent="1" source="oqmiWPjRUzapbf_sIHo5-99" target="oqmiWPjRUzapbf_sIHo5-95">
          <mxGeometry relative="1" as="geometry" />
        </mxCell>
        <mxCell id="oqmiWPjRUzapbf_sIHo5-102" style="edgeStyle=orthogonalEdgeStyle;rounded=0;orthogonalLoop=1;jettySize=auto;html=1;exitX=0.5;exitY=1;exitDx=0;exitDy=0;entryX=0.821;entryY=0.007;entryDx=0;entryDy=0;entryPerimeter=0;endArrow=none;endFill=0;" edge="1" parent="1" source="oqmiWPjRUzapbf_sIHo5-96" target="oqmiWPjRUzapbf_sIHo5-95">
          <mxGeometry relative="1" as="geometry" />
        </mxCell>
        <mxCell id="oqmiWPjRUzapbf_sIHo5-104" style="edgeStyle=orthogonalEdgeStyle;rounded=0;orthogonalLoop=1;jettySize=auto;html=1;exitX=0;exitY=1;exitDx=0;exitDy=0;entryX=0.75;entryY=0;entryDx=0;entryDy=0;endArrow=none;endFill=0;" edge="1" parent="1" source="oqmiWPjRUzapbf_sIHo5-103" target="oqmiWPjRUzapbf_sIHo5-95">
          <mxGeometry relative="1" as="geometry" />
        </mxCell>
        <mxCell id="oqmiWPjRUzapbf_sIHo5-103" value="phone_number" style="ellipse;whiteSpace=wrap;html=1;align=center;" vertex="1" parent="1">
          <mxGeometry x="260" y="-410" width="100" height="40" as="geometry" />
        </mxCell>
        <mxCell id="oqmiWPjRUzapbf_sIHo5-106" style="edgeStyle=orthogonalEdgeStyle;rounded=0;orthogonalLoop=1;jettySize=auto;html=1;exitX=0.2;exitY=0.896;exitDx=0;exitDy=0;entryX=0.947;entryY=0.001;entryDx=0;entryDy=0;exitPerimeter=0;endArrow=none;endFill=0;entryPerimeter=0;" edge="1" parent="1" source="oqmiWPjRUzapbf_sIHo5-105" target="oqmiWPjRUzapbf_sIHo5-95">
          <mxGeometry relative="1" as="geometry">
            <Array as="points">
              <mxPoint x="420" y="-190" />
              <mxPoint x="315" y="-190" />
              <mxPoint x="315" y="-160" />
            </Array>
          </mxGeometry>
        </mxCell>
        <mxCell id="oqmiWPjRUzapbf_sIHo5-105" value="age" style="ellipse;whiteSpace=wrap;html=1;align=center;" vertex="1" parent="1">
          <mxGeometry x="400" y="-260" width="100" height="40" as="geometry" />
        </mxCell>
        <mxCell id="oqmiWPjRUzapbf_sIHo5-107" value="name" style="ellipse;whiteSpace=wrap;html=1;align=center;" vertex="1" parent="1">
          <mxGeometry x="167.5" y="-380" width="100" height="40" as="geometry" />
        </mxCell>
        <mxCell id="oqmiWPjRUzapbf_sIHo5-108" style="edgeStyle=orthogonalEdgeStyle;rounded=0;orthogonalLoop=1;jettySize=auto;html=1;exitX=1;exitY=1;exitDx=0;exitDy=0;entryX=0.664;entryY=0.02;entryDx=0;entryDy=0;entryPerimeter=0;endArrow=none;endFill=0;" edge="1" parent="1" source="oqmiWPjRUzapbf_sIHo5-107" target="oqmiWPjRUzapbf_sIHo5-95">
          <mxGeometry relative="1" as="geometry" />
        </mxCell>
        <mxCell id="oqmiWPjRUzapbf_sIHo5-113" style="edgeStyle=orthogonalEdgeStyle;rounded=0;orthogonalLoop=1;jettySize=auto;html=1;exitX=1;exitY=1;exitDx=0;exitDy=0;entryX=0.5;entryY=0;entryDx=0;entryDy=0;endArrow=none;endFill=0;" edge="1" parent="1" source="oqmiWPjRUzapbf_sIHo5-109" target="oqmiWPjRUzapbf_sIHo5-95">
          <mxGeometry relative="1" as="geometry">
            <Array as="points">
              <mxPoint x="265" y="-180" />
              <mxPoint x="265" y="-160" />
            </Array>
          </mxGeometry>
        </mxCell>
        <mxCell id="oqmiWPjRUzapbf_sIHo5-109" value="user_id" style="ellipse;whiteSpace=wrap;html=1;align=center;fontStyle=4;" vertex="1" parent="1">
          <mxGeometry x="180" y="-240" width="100" height="40" as="geometry" />
        </mxCell>
        <mxCell id="oqmiWPjRUzapbf_sIHo5-115" style="edgeStyle=orthogonalEdgeStyle;rounded=0;orthogonalLoop=1;jettySize=auto;html=1;exitX=0;exitY=0.5;exitDx=0;exitDy=0;entryX=0.5;entryY=1;entryDx=0;entryDy=0;endArrow=none;endFill=0;" edge="1" parent="1" source="oqmiWPjRUzapbf_sIHo5-114" target="oqmiWPjRUzapbf_sIHo5-95">
          <mxGeometry relative="1" as="geometry" />
        </mxCell>
        <mxCell id="oqmiWPjRUzapbf_sIHo5-114" value="" style="triangle;whiteSpace=wrap;html=1;rotation=90;" vertex="1" parent="1">
          <mxGeometry x="252.5" y="-90" width="35" height="80" as="geometry" />
        </mxCell>
        <mxCell id="oqmiWPjRUzapbf_sIHo5-117" value="score" style="ellipse;whiteSpace=wrap;html=1;align=center;" vertex="1" parent="1">
          <mxGeometry x="172.5" y="-50" width="50" height="30" as="geometry" />
        </mxCell>
        <mxCell id="oqmiWPjRUzapbf_sIHo5-297" style="edgeStyle=orthogonalEdgeStyle;rounded=0;orthogonalLoop=1;jettySize=auto;html=1;exitX=0.25;exitY=0;exitDx=0;exitDy=0;strokeColor=default;align=center;verticalAlign=middle;fontFamily=Helvetica;fontSize=11;fontColor=default;labelBackgroundColor=default;endArrow=none;endFill=0;entryX=0.375;entryY=0.813;entryDx=0;entryDy=0;entryPerimeter=0;" edge="1" parent="1" source="oqmiWPjRUzapbf_sIHo5-118" target="oqmiWPjRUzapbf_sIHo5-114">
          <mxGeometry relative="1" as="geometry">
            <Array as="points">
              <mxPoint x="245" y="-50" />
            </Array>
          </mxGeometry>
        </mxCell>
        <mxCell id="oqmiWPjRUzapbf_sIHo5-118" value="hotel_admin" style="rounded=1;arcSize=10;whiteSpace=wrap;html=1;align=center;" vertex="1" parent="1">
          <mxGeometry x="220" y="30" width="100" height="40" as="geometry" />
        </mxCell>
        <mxCell id="oqmiWPjRUzapbf_sIHo5-119" value="cutomer" style="rounded=1;arcSize=10;whiteSpace=wrap;html=1;align=center;" vertex="1" parent="1">
          <mxGeometry x="110" y="-10" width="100" height="40" as="geometry" />
        </mxCell>
        <mxCell id="oqmiWPjRUzapbf_sIHo5-120" value="marketing" style="rounded=1;arcSize=10;whiteSpace=wrap;html=1;align=center;" vertex="1" parent="1">
          <mxGeometry x="550" y="-30" width="100" height="40" as="geometry" />
        </mxCell>
        <mxCell id="oqmiWPjRUzapbf_sIHo5-299" style="edgeStyle=orthogonalEdgeStyle;rounded=0;orthogonalLoop=1;jettySize=auto;html=1;exitX=0.25;exitY=0;exitDx=0;exitDy=0;entryX=0.791;entryY=0.397;entryDx=0;entryDy=0;strokeColor=default;align=center;verticalAlign=middle;fontFamily=Helvetica;fontSize=11;fontColor=default;labelBackgroundColor=default;endArrow=none;endFill=0;entryPerimeter=0;" edge="1" parent="1" source="oqmiWPjRUzapbf_sIHo5-121" target="oqmiWPjRUzapbf_sIHo5-114">
          <mxGeometry relative="1" as="geometry">
            <Array as="points">
              <mxPoint x="465" y="-40" />
              <mxPoint x="290" y="-40" />
            </Array>
          </mxGeometry>
        </mxCell>
        <mxCell id="oqmiWPjRUzapbf_sIHo5-121" value="support" style="rounded=1;arcSize=10;whiteSpace=wrap;html=1;align=center;" vertex="1" parent="1">
          <mxGeometry x="440" y="-10" width="100" height="40" as="geometry" />
        </mxCell>
        <mxCell id="oqmiWPjRUzapbf_sIHo5-298" style="edgeStyle=orthogonalEdgeStyle;rounded=0;orthogonalLoop=1;jettySize=auto;html=1;exitX=0.25;exitY=0;exitDx=0;exitDy=0;entryX=1;entryY=0.5;entryDx=0;entryDy=0;strokeColor=default;align=center;verticalAlign=middle;fontFamily=Helvetica;fontSize=11;fontColor=default;labelBackgroundColor=default;endArrow=none;endFill=0;" edge="1" parent="1" source="oqmiWPjRUzapbf_sIHo5-122" target="oqmiWPjRUzapbf_sIHo5-114">
          <mxGeometry relative="1" as="geometry" />
        </mxCell>
        <mxCell id="oqmiWPjRUzapbf_sIHo5-122" value="TR_admin" style="rounded=1;arcSize=10;whiteSpace=wrap;html=1;align=center;" vertex="1" parent="1">
          <mxGeometry x="340" y="70" width="100" height="40" as="geometry" />
        </mxCell>
        <mxCell id="oqmiWPjRUzapbf_sIHo5-145" style="edgeStyle=orthogonalEdgeStyle;rounded=0;orthogonalLoop=1;jettySize=auto;html=1;exitX=0.5;exitY=0;exitDx=0;exitDy=0;entryX=0.5;entryY=1;entryDx=0;entryDy=0;endArrow=none;endFill=0;" edge="1" parent="1" source="oqmiWPjRUzapbf_sIHo5-124" target="oqmiWPjRUzapbf_sIHo5-128">
          <mxGeometry relative="1" as="geometry" />
        </mxCell>
        <mxCell id="oqmiWPjRUzapbf_sIHo5-124" value="customers_club" style="shape=ext;margin=3;double=1;whiteSpace=wrap;html=1;align=center;" vertex="1" parent="1">
          <mxGeometry x="110" y="142.5" width="100" height="40" as="geometry" />
        </mxCell>
        <mxCell id="oqmiWPjRUzapbf_sIHo5-125" value="" style="edgeStyle=orthogonalEdgeStyle;rounded=0;orthogonalLoop=1;jettySize=auto;html=1;endArrow=none;endFill=0;" edge="1" parent="1" source="oqmiWPjRUzapbf_sIHo5-126" target="oqmiWPjRUzapbf_sIHo5-124">
          <mxGeometry relative="1" as="geometry" />
        </mxCell>
        <mxCell id="oqmiWPjRUzapbf_sIHo5-126" value="scale" style="ellipse;whiteSpace=wrap;html=1;align=center;dashed=1;" vertex="1" parent="1">
          <mxGeometry x="20" y="148.75" width="70" height="27.5" as="geometry" />
        </mxCell>
        <mxCell id="oqmiWPjRUzapbf_sIHo5-144" style="edgeStyle=orthogonalEdgeStyle;rounded=0;orthogonalLoop=1;jettySize=auto;html=1;exitX=0.5;exitY=0;exitDx=0;exitDy=0;entryX=0.5;entryY=1;entryDx=0;entryDy=0;endArrow=ERmany;endFill=0;" edge="1" parent="1" source="oqmiWPjRUzapbf_sIHo5-128" target="oqmiWPjRUzapbf_sIHo5-119">
          <mxGeometry relative="1" as="geometry" />
        </mxCell>
        <mxCell id="oqmiWPjRUzapbf_sIHo5-128" value="has" style="shape=rhombus;double=1;perimeter=rhombusPerimeter;whiteSpace=wrap;html=1;align=center;aspect=fixed;" vertex="1" parent="1">
          <mxGeometry x="115.86" y="70" width="88.28" height="40" as="geometry" />
        </mxCell>
        <mxCell id="oqmiWPjRUzapbf_sIHo5-319" style="edgeStyle=orthogonalEdgeStyle;rounded=0;orthogonalLoop=1;jettySize=auto;html=1;exitX=1;exitY=0.5;exitDx=0;exitDy=0;entryX=0.25;entryY=1;entryDx=0;entryDy=0;strokeColor=default;align=center;verticalAlign=middle;fontFamily=Helvetica;fontSize=11;fontColor=default;labelBackgroundColor=default;endArrow=none;endFill=0;" edge="1" parent="1" source="oqmiWPjRUzapbf_sIHo5-130" target="oqmiWPjRUzapbf_sIHo5-119">
          <mxGeometry relative="1" as="geometry" />
        </mxCell>
        <mxCell id="oqmiWPjRUzapbf_sIHo5-130" value="paid" style="ellipse;whiteSpace=wrap;html=1;align=center;dashed=1;" vertex="1" parent="1">
          <mxGeometry x="60" y="50" width="50" height="30" as="geometry" />
        </mxCell>
        <mxCell id="oqmiWPjRUzapbf_sIHo5-148" style="edgeStyle=orthogonalEdgeStyle;rounded=0;orthogonalLoop=1;jettySize=auto;html=1;exitX=0.5;exitY=0;exitDx=0;exitDy=0;entryX=0.5;entryY=1;entryDx=0;entryDy=0;endArrow=ERmany;endFill=0;" edge="1" parent="1" source="oqmiWPjRUzapbf_sIHo5-133" target="oqmiWPjRUzapbf_sIHo5-118">
          <mxGeometry relative="1" as="geometry" />
        </mxCell>
        <mxCell id="oqmiWPjRUzapbf_sIHo5-133" value="has" style="shape=rhombus;perimeter=rhombusPerimeter;whiteSpace=wrap;html=1;align=center;" vertex="1" parent="1">
          <mxGeometry x="82.5" y="330" width="80" height="40" as="geometry" />
        </mxCell>
        <mxCell id="oqmiWPjRUzapbf_sIHo5-135" style="edgeStyle=orthogonalEdgeStyle;rounded=0;orthogonalLoop=1;jettySize=auto;html=1;exitX=0.5;exitY=0;exitDx=0;exitDy=0;entryX=0.5;entryY=1;entryDx=0;entryDy=0;" edge="1" parent="1" source="oqmiWPjRUzapbf_sIHo5-136" target="oqmiWPjRUzapbf_sIHo5-137">
          <mxGeometry relative="1" as="geometry" />
        </mxCell>
        <mxCell id="oqmiWPjRUzapbf_sIHo5-136" value="company" style="rounded=1;arcSize=10;whiteSpace=wrap;html=1;align=center;fillColor=#f8cecc;strokeColor=#b85450;" vertex="1" parent="1">
          <mxGeometry x="325" y="310" width="100" height="40" as="geometry" />
        </mxCell>
        <mxCell id="oqmiWPjRUzapbf_sIHo5-149" style="edgeStyle=orthogonalEdgeStyle;rounded=0;orthogonalLoop=1;jettySize=auto;html=1;exitX=0.5;exitY=0;exitDx=0;exitDy=0;entryX=0.5;entryY=1;entryDx=0;entryDy=0;endArrow=ERmany;endFill=0;" edge="1" parent="1" source="oqmiWPjRUzapbf_sIHo5-137" target="oqmiWPjRUzapbf_sIHo5-122">
          <mxGeometry relative="1" as="geometry" />
        </mxCell>
        <mxCell id="oqmiWPjRUzapbf_sIHo5-137" value="has" style="shape=rhombus;perimeter=rhombusPerimeter;whiteSpace=wrap;html=1;align=center;" vertex="1" parent="1">
          <mxGeometry x="350" y="157.5" width="80" height="40" as="geometry" />
        </mxCell>
        <mxCell id="oqmiWPjRUzapbf_sIHo5-227" style="edgeStyle=orthogonalEdgeStyle;rounded=0;orthogonalLoop=1;jettySize=auto;html=1;exitX=1;exitY=0.5;exitDx=0;exitDy=0;entryX=0;entryY=0.75;entryDx=0;entryDy=0;endArrow=none;endFill=0;" edge="1" parent="1" source="oqmiWPjRUzapbf_sIHo5-188" target="oqmiWPjRUzapbf_sIHo5-191">
          <mxGeometry relative="1" as="geometry" />
        </mxCell>
        <mxCell id="oqmiWPjRUzapbf_sIHo5-188" value="&lt;u&gt;hotel_id&lt;/u&gt;" style="ellipse;whiteSpace=wrap;html=1;" vertex="1" parent="1">
          <mxGeometry x="-60" y="565" width="90" height="40" as="geometry" />
        </mxCell>
        <mxCell id="oqmiWPjRUzapbf_sIHo5-190" style="edgeStyle=orthogonalEdgeStyle;rounded=0;orthogonalLoop=1;jettySize=auto;html=1;exitX=1;exitY=0.5;exitDx=0;exitDy=0;entryX=0;entryY=0.5;entryDx=0;entryDy=0;endArrow=none;endFill=0;" edge="1" parent="1" source="oqmiWPjRUzapbf_sIHo5-191" target="oqmiWPjRUzapbf_sIHo5-221">
          <mxGeometry relative="1" as="geometry" />
        </mxCell>
        <mxCell id="oqmiWPjRUzapbf_sIHo5-232" style="edgeStyle=orthogonalEdgeStyle;rounded=0;orthogonalLoop=1;jettySize=auto;html=1;exitX=0.5;exitY=0;exitDx=0;exitDy=0;entryX=0.5;entryY=1;entryDx=0;entryDy=0;endArrow=none;endFill=0;" edge="1" parent="1" source="oqmiWPjRUzapbf_sIHo5-191" target="oqmiWPjRUzapbf_sIHo5-133">
          <mxGeometry relative="1" as="geometry" />
        </mxCell>
        <mxCell id="oqmiWPjRUzapbf_sIHo5-191" value="hotel" style="rounded=1;arcSize=10;whiteSpace=wrap;html=1;align=center;" vertex="1" parent="1">
          <mxGeometry x="72.5" y="555" width="100" height="40" as="geometry" />
        </mxCell>
        <mxCell id="oqmiWPjRUzapbf_sIHo5-193" value="type" style="ellipse;whiteSpace=wrap;html=1;align=center;" vertex="1" parent="1">
          <mxGeometry x="-50" y="500" width="100" height="40" as="geometry" />
        </mxCell>
        <mxCell id="oqmiWPjRUzapbf_sIHo5-228" style="edgeStyle=orthogonalEdgeStyle;rounded=0;orthogonalLoop=1;jettySize=auto;html=1;exitX=1;exitY=0.5;exitDx=0;exitDy=0;entryX=0;entryY=0.25;entryDx=0;entryDy=0;endArrow=none;endFill=0;" edge="1" parent="1" source="oqmiWPjRUzapbf_sIHo5-194" target="oqmiWPjRUzapbf_sIHo5-191">
          <mxGeometry relative="1" as="geometry" />
        </mxCell>
        <mxCell id="oqmiWPjRUzapbf_sIHo5-194" value="cancel_rules" style="ellipse;whiteSpace=wrap;html=1;align=center;" vertex="1" parent="1">
          <mxGeometry x="-140" y="530" width="100" height="40" as="geometry" />
        </mxCell>
        <mxCell id="oqmiWPjRUzapbf_sIHo5-196" style="edgeStyle=orthogonalEdgeStyle;rounded=0;orthogonalLoop=1;jettySize=auto;html=1;exitX=0;exitY=0.5;exitDx=0;exitDy=0;entryX=0.75;entryY=0;entryDx=0;entryDy=0;endArrow=none;endFill=0;" edge="1" parent="1">
          <mxGeometry relative="1" as="geometry">
            <mxPoint x="209.9999999999999" y="495" as="sourcePoint" />
            <mxPoint x="153.36" y="555" as="targetPoint" />
          </mxGeometry>
        </mxCell>
        <mxCell id="oqmiWPjRUzapbf_sIHo5-197" value="name" style="ellipse;whiteSpace=wrap;html=1;align=center;" vertex="1" parent="1">
          <mxGeometry x="204.14" y="475" width="100" height="40" as="geometry" />
        </mxCell>
        <mxCell id="oqmiWPjRUzapbf_sIHo5-199" value="address" style="ellipse;whiteSpace=wrap;html=1;align=center;" vertex="1" parent="1">
          <mxGeometry x="197.5" y="520" width="100" height="40" as="geometry" />
        </mxCell>
        <mxCell id="oqmiWPjRUzapbf_sIHo5-200" style="edgeStyle=orthogonalEdgeStyle;rounded=0;orthogonalLoop=1;jettySize=auto;html=1;exitX=0;exitY=0;exitDx=0;exitDy=0;entryX=0.923;entryY=1.004;entryDx=0;entryDy=0;endArrow=none;endFill=0;entryPerimeter=0;" edge="1" parent="1" source="oqmiWPjRUzapbf_sIHo5-201" target="oqmiWPjRUzapbf_sIHo5-191">
          <mxGeometry relative="1" as="geometry" />
        </mxCell>
        <mxCell id="oqmiWPjRUzapbf_sIHo5-201" value="phone_number" style="ellipse;whiteSpace=wrap;html=1;align=center;" vertex="1" parent="1">
          <mxGeometry x="210" y="610" width="100" height="40" as="geometry" />
        </mxCell>
        <mxCell id="oqmiWPjRUzapbf_sIHo5-202" value="score" style="ellipse;whiteSpace=wrap;html=1;align=center;" vertex="1" parent="1">
          <mxGeometry x="150" y="655" width="100" height="40" as="geometry" />
        </mxCell>
        <mxCell id="oqmiWPjRUzapbf_sIHo5-203" style="edgeStyle=orthogonalEdgeStyle;rounded=0;orthogonalLoop=1;jettySize=auto;html=1;exitX=0.75;exitY=1;exitDx=0;exitDy=0;endArrow=none;endFill=0;entryX=0.5;entryY=0;entryDx=0;entryDy=0;" edge="1" parent="1" source="oqmiWPjRUzapbf_sIHo5-191" target="oqmiWPjRUzapbf_sIHo5-202">
          <mxGeometry relative="1" as="geometry">
            <mxPoint x="200" y="650" as="targetPoint" />
          </mxGeometry>
        </mxCell>
        <mxCell id="oqmiWPjRUzapbf_sIHo5-204" value="amenities" style="ellipse;shape=doubleEllipse;margin=3;whiteSpace=wrap;html=1;align=center;" vertex="1" parent="1">
          <mxGeometry x="50" y="635" width="100" height="40" as="geometry" />
        </mxCell>
        <mxCell id="oqmiWPjRUzapbf_sIHo5-226" style="edgeStyle=orthogonalEdgeStyle;rounded=0;orthogonalLoop=1;jettySize=auto;html=1;exitX=1;exitY=0.5;exitDx=0;exitDy=0;entryX=0.5;entryY=1;entryDx=0;entryDy=0;endArrow=none;endFill=0;" edge="1" parent="1" source="oqmiWPjRUzapbf_sIHo5-206" target="oqmiWPjRUzapbf_sIHo5-191">
          <mxGeometry relative="1" as="geometry" />
        </mxCell>
        <mxCell id="oqmiWPjRUzapbf_sIHo5-206" value="comments" style="ellipse;shape=doubleEllipse;margin=3;whiteSpace=wrap;html=1;align=center;" vertex="1" parent="1">
          <mxGeometry x="-30" y="605" width="100" height="40" as="geometry" />
        </mxCell>
        <mxCell id="oqmiWPjRUzapbf_sIHo5-207" style="edgeStyle=orthogonalEdgeStyle;rounded=0;orthogonalLoop=1;jettySize=auto;html=1;exitX=0.75;exitY=0;exitDx=0;exitDy=0;entryX=0;entryY=0.5;entryDx=0;entryDy=0;endArrow=none;endFill=0;strokeColor=default;" edge="1" parent="1" source="oqmiWPjRUzapbf_sIHo5-210" target="oqmiWPjRUzapbf_sIHo5-213">
          <mxGeometry relative="1" as="geometry" />
        </mxCell>
        <mxCell id="oqmiWPjRUzapbf_sIHo5-208" style="edgeStyle=orthogonalEdgeStyle;rounded=0;orthogonalLoop=1;jettySize=auto;html=1;endArrow=none;endFill=0;exitX=0.999;exitY=0.876;exitDx=0;exitDy=0;exitPerimeter=0;" edge="1" parent="1" source="oqmiWPjRUzapbf_sIHo5-210" target="oqmiWPjRUzapbf_sIHo5-216">
          <mxGeometry relative="1" as="geometry">
            <mxPoint x="600" y="560" as="sourcePoint" />
            <Array as="points">
              <mxPoint x="610" y="560" />
              <mxPoint x="610" y="570" />
              <mxPoint x="682" y="570" />
            </Array>
          </mxGeometry>
        </mxCell>
        <mxCell id="oqmiWPjRUzapbf_sIHo5-209" style="edgeStyle=orthogonalEdgeStyle;rounded=0;orthogonalLoop=1;jettySize=auto;html=1;exitX=0.5;exitY=1;exitDx=0;exitDy=0;entryX=1;entryY=0;entryDx=0;entryDy=0;endArrow=none;endFill=0;" edge="1" parent="1" source="oqmiWPjRUzapbf_sIHo5-210" target="oqmiWPjRUzapbf_sIHo5-219">
          <mxGeometry relative="1" as="geometry" />
        </mxCell>
        <mxCell id="oqmiWPjRUzapbf_sIHo5-210" value="room" style="rounded=1;arcSize=10;whiteSpace=wrap;html=1;align=center;" vertex="1" parent="1">
          <mxGeometry x="497.5" y="525" width="100" height="40" as="geometry" />
        </mxCell>
        <mxCell id="oqmiWPjRUzapbf_sIHo5-211" value="" style="edgeStyle=orthogonalEdgeStyle;rounded=0;orthogonalLoop=1;jettySize=auto;html=1;endArrow=none;endFill=0;" edge="1" parent="1" source="oqmiWPjRUzapbf_sIHo5-212" target="oqmiWPjRUzapbf_sIHo5-210">
          <mxGeometry relative="1" as="geometry" />
        </mxCell>
        <mxCell id="oqmiWPjRUzapbf_sIHo5-212" value="beds_number" style="ellipse;whiteSpace=wrap;html=1;align=center;" vertex="1" parent="1">
          <mxGeometry x="497.5" y="455" width="100" height="40" as="geometry" />
        </mxCell>
        <mxCell id="oqmiWPjRUzapbf_sIHo5-213" value="size" style="ellipse;whiteSpace=wrap;html=1;align=center;" vertex="1" parent="1">
          <mxGeometry x="607.5" y="475" width="100" height="40" as="geometry" />
        </mxCell>
        <mxCell id="oqmiWPjRUzapbf_sIHo5-214" value="" style="edgeStyle=orthogonalEdgeStyle;rounded=0;orthogonalLoop=1;jettySize=auto;html=1;endArrow=none;endFill=0;" edge="1" parent="1" source="oqmiWPjRUzapbf_sIHo5-215" target="oqmiWPjRUzapbf_sIHo5-210">
          <mxGeometry relative="1" as="geometry" />
        </mxCell>
        <mxCell id="oqmiWPjRUzapbf_sIHo5-215" value="capacity" style="ellipse;whiteSpace=wrap;html=1;align=center;" vertex="1" parent="1">
          <mxGeometry x="637.5" y="525" width="100" height="40" as="geometry" />
        </mxCell>
        <mxCell id="oqmiWPjRUzapbf_sIHo5-216" value="equipment" style="ellipse;shape=doubleEllipse;margin=3;whiteSpace=wrap;html=1;align=center;" vertex="1" parent="1">
          <mxGeometry x="632.5" y="615" width="100" height="40" as="geometry" />
        </mxCell>
        <mxCell id="oqmiWPjRUzapbf_sIHo5-217" value="amenity" style="ellipse;shape=doubleEllipse;margin=3;whiteSpace=wrap;html=1;align=center;" vertex="1" parent="1">
          <mxGeometry x="387.5" y="455" width="100" height="40" as="geometry" />
        </mxCell>
        <mxCell id="oqmiWPjRUzapbf_sIHo5-218" style="edgeStyle=orthogonalEdgeStyle;rounded=0;orthogonalLoop=1;jettySize=auto;html=1;exitX=0.25;exitY=0;exitDx=0;exitDy=0;entryX=0.917;entryY=0.862;entryDx=0;entryDy=0;entryPerimeter=0;endArrow=none;endFill=0;" edge="1" parent="1" source="oqmiWPjRUzapbf_sIHo5-210" target="oqmiWPjRUzapbf_sIHo5-217">
          <mxGeometry relative="1" as="geometry" />
        </mxCell>
        <mxCell id="oqmiWPjRUzapbf_sIHo5-219" value="state" style="ellipse;whiteSpace=wrap;html=1;align=center;" vertex="1" parent="1">
          <mxGeometry x="467.5" y="595" width="100" height="40" as="geometry" />
        </mxCell>
        <mxCell id="oqmiWPjRUzapbf_sIHo5-220" style="edgeStyle=orthogonalEdgeStyle;rounded=0;orthogonalLoop=1;jettySize=auto;html=1;exitX=1;exitY=0.5;exitDx=0;exitDy=0;entryX=0;entryY=0.5;entryDx=0;entryDy=0;endArrow=ERmany;endFill=0;" edge="1" parent="1" source="oqmiWPjRUzapbf_sIHo5-221" target="oqmiWPjRUzapbf_sIHo5-210">
          <mxGeometry relative="1" as="geometry" />
        </mxCell>
        <mxCell id="oqmiWPjRUzapbf_sIHo5-221" value="has" style="shape=rhombus;perimeter=rhombusPerimeter;whiteSpace=wrap;html=1;align=center;" vertex="1" parent="1">
          <mxGeometry x="297.5" y="555" width="90" height="40" as="geometry" />
        </mxCell>
        <mxCell id="oqmiWPjRUzapbf_sIHo5-222" value="room_id" style="ellipse;whiteSpace=wrap;html=1;align=center;" vertex="1" parent="1">
          <mxGeometry x="532.5" y="645" width="100" height="40" as="geometry" />
        </mxCell>
        <mxCell id="oqmiWPjRUzapbf_sIHo5-223" style="edgeStyle=orthogonalEdgeStyle;rounded=0;orthogonalLoop=1;jettySize=auto;html=1;exitX=0.5;exitY=0;exitDx=0;exitDy=0;entryX=0.846;entryY=1.014;entryDx=0;entryDy=0;entryPerimeter=0;endArrow=none;endFill=0;" edge="1" parent="1" source="oqmiWPjRUzapbf_sIHo5-222" target="oqmiWPjRUzapbf_sIHo5-210">
          <mxGeometry relative="1" as="geometry" />
        </mxCell>
        <mxCell id="oqmiWPjRUzapbf_sIHo5-225" style="edgeStyle=orthogonalEdgeStyle;rounded=0;orthogonalLoop=1;jettySize=auto;html=1;exitX=1;exitY=0;exitDx=0;exitDy=0;endArrow=none;endFill=0;entryX=0.624;entryY=1.004;entryDx=0;entryDy=0;entryPerimeter=0;" edge="1" parent="1" source="oqmiWPjRUzapbf_sIHo5-204" target="oqmiWPjRUzapbf_sIHo5-191">
          <mxGeometry relative="1" as="geometry">
            <mxPoint x="140" y="600" as="targetPoint" />
          </mxGeometry>
        </mxCell>
        <mxCell id="oqmiWPjRUzapbf_sIHo5-229" style="edgeStyle=orthogonalEdgeStyle;rounded=0;orthogonalLoop=1;jettySize=auto;html=1;exitX=1;exitY=0.5;exitDx=0;exitDy=0;entryX=0.077;entryY=0.016;entryDx=0;entryDy=0;entryPerimeter=0;endArrow=none;endFill=0;" edge="1" parent="1" source="oqmiWPjRUzapbf_sIHo5-193" target="oqmiWPjRUzapbf_sIHo5-191">
          <mxGeometry relative="1" as="geometry" />
        </mxCell>
        <mxCell id="oqmiWPjRUzapbf_sIHo5-231" style="edgeStyle=orthogonalEdgeStyle;rounded=0;orthogonalLoop=1;jettySize=auto;html=1;exitX=0;exitY=0.5;exitDx=0;exitDy=0;entryX=0.915;entryY=-0.003;entryDx=0;entryDy=0;entryPerimeter=0;endArrow=none;endFill=0;" edge="1" parent="1" source="oqmiWPjRUzapbf_sIHo5-199" target="oqmiWPjRUzapbf_sIHo5-191">
          <mxGeometry relative="1" as="geometry" />
        </mxCell>
        <mxCell id="oqmiWPjRUzapbf_sIHo5-243" style="edgeStyle=orthogonalEdgeStyle;rounded=0;orthogonalLoop=1;jettySize=auto;html=1;exitX=1;exitY=0.5;exitDx=0;exitDy=0;entryX=0.5;entryY=0;entryDx=0;entryDy=0;endArrow=none;endFill=0;" edge="1" parent="1" source="oqmiWPjRUzapbf_sIHo5-234" target="oqmiWPjRUzapbf_sIHo5-239">
          <mxGeometry relative="1" as="geometry" />
        </mxCell>
        <mxCell id="oqmiWPjRUzapbf_sIHo5-234" value="wallet" style="shape=ext;margin=3;double=1;whiteSpace=wrap;html=1;align=center;" vertex="1" parent="1">
          <mxGeometry x="-2.5" y="-330" width="100" height="40" as="geometry" />
        </mxCell>
        <mxCell id="oqmiWPjRUzapbf_sIHo5-237" style="edgeStyle=orthogonalEdgeStyle;rounded=0;orthogonalLoop=1;jettySize=auto;html=1;exitX=0.5;exitY=1;exitDx=0;exitDy=0;entryX=0.25;entryY=0;entryDx=0;entryDy=0;endArrow=none;endFill=0;" edge="1" parent="1" source="oqmiWPjRUzapbf_sIHo5-235" target="oqmiWPjRUzapbf_sIHo5-234">
          <mxGeometry relative="1" as="geometry" />
        </mxCell>
        <mxCell id="oqmiWPjRUzapbf_sIHo5-235" value="credit" style="ellipse;whiteSpace=wrap;html=1;align=center;" vertex="1" parent="1">
          <mxGeometry x="-42.5" y="-430" width="100" height="40" as="geometry" />
        </mxCell>
        <mxCell id="oqmiWPjRUzapbf_sIHo5-236" value="&lt;u&gt;user_id&lt;/u&gt;" style="ellipse;whiteSpace=wrap;html=1;align=center;fontStyle=4;" vertex="1" parent="1">
          <mxGeometry x="62.5" y="-422.5" width="100" height="40" as="geometry" />
        </mxCell>
        <mxCell id="oqmiWPjRUzapbf_sIHo5-238" style="edgeStyle=orthogonalEdgeStyle;rounded=0;orthogonalLoop=1;jettySize=auto;html=1;exitX=0.75;exitY=0;exitDx=0;exitDy=0;endArrow=none;endFill=0;entryX=0.351;entryY=0.969;entryDx=0;entryDy=0;entryPerimeter=0;" edge="1" parent="1" source="oqmiWPjRUzapbf_sIHo5-234" target="oqmiWPjRUzapbf_sIHo5-236">
          <mxGeometry relative="1" as="geometry">
            <mxPoint x="97.5" y="-380" as="targetPoint" />
          </mxGeometry>
        </mxCell>
        <mxCell id="oqmiWPjRUzapbf_sIHo5-244" style="edgeStyle=orthogonalEdgeStyle;rounded=0;orthogonalLoop=1;jettySize=auto;html=1;exitX=0.5;exitY=1;exitDx=0;exitDy=0;entryX=0.25;entryY=0;entryDx=0;entryDy=0;endArrow=none;endFill=0;" edge="1" parent="1" source="oqmiWPjRUzapbf_sIHo5-239" target="oqmiWPjRUzapbf_sIHo5-95">
          <mxGeometry relative="1" as="geometry" />
        </mxCell>
        <mxCell id="oqmiWPjRUzapbf_sIHo5-239" value="has" style="shape=rhombus;perimeter=rhombusPerimeter;whiteSpace=wrap;html=1;align=center;" vertex="1" parent="1">
          <mxGeometry x="92.5" y="-250" width="80" height="40" as="geometry" />
        </mxCell>
        <mxCell id="oqmiWPjRUzapbf_sIHo5-245" value="bank_account" style="rounded=1;arcSize=10;whiteSpace=wrap;html=1;align=center;" vertex="1" parent="1">
          <mxGeometry x="-102.5" y="-270" width="100" height="40" as="geometry" />
        </mxCell>
        <mxCell id="oqmiWPjRUzapbf_sIHo5-251" style="edgeStyle=orthogonalEdgeStyle;rounded=0;orthogonalLoop=1;jettySize=auto;html=1;exitX=1;exitY=0.5;exitDx=0;exitDy=0;entryX=0;entryY=0.25;entryDx=0;entryDy=0;endArrow=none;endFill=0;" edge="1" parent="1" source="oqmiWPjRUzapbf_sIHo5-246" target="oqmiWPjRUzapbf_sIHo5-245">
          <mxGeometry relative="1" as="geometry" />
        </mxCell>
        <mxCell id="oqmiWPjRUzapbf_sIHo5-246" value="bank_name" style="ellipse;whiteSpace=wrap;html=1;align=center;" vertex="1" parent="1">
          <mxGeometry x="-260" y="-312.5" width="100" height="40" as="geometry" />
        </mxCell>
        <mxCell id="oqmiWPjRUzapbf_sIHo5-252" style="edgeStyle=orthogonalEdgeStyle;rounded=0;orthogonalLoop=1;jettySize=auto;html=1;exitX=1;exitY=0.5;exitDx=0;exitDy=0;entryX=0.25;entryY=0;entryDx=0;entryDy=0;strokeColor=default;align=center;verticalAlign=middle;fontFamily=Helvetica;fontSize=11;fontColor=default;labelBackgroundColor=default;endArrow=none;endFill=0;" edge="1" parent="1" source="oqmiWPjRUzapbf_sIHo5-247" target="oqmiWPjRUzapbf_sIHo5-245">
          <mxGeometry relative="1" as="geometry" />
        </mxCell>
        <mxCell id="oqmiWPjRUzapbf_sIHo5-247" value="&lt;u&gt;bank_account_id&lt;/u&gt;" style="ellipse;whiteSpace=wrap;html=1;align=center;" vertex="1" parent="1">
          <mxGeometry x="-260" y="-362.5" width="100" height="40" as="geometry" />
        </mxCell>
        <mxCell id="oqmiWPjRUzapbf_sIHo5-253" style="edgeStyle=orthogonalEdgeStyle;rounded=0;orthogonalLoop=1;jettySize=auto;html=1;exitX=1;exitY=1;exitDx=0;exitDy=0;entryX=0.5;entryY=0;entryDx=0;entryDy=0;strokeColor=default;align=center;verticalAlign=middle;fontFamily=Helvetica;fontSize=11;fontColor=default;labelBackgroundColor=default;endArrow=none;endFill=0;" edge="1" parent="1" source="oqmiWPjRUzapbf_sIHo5-248" target="oqmiWPjRUzapbf_sIHo5-245">
          <mxGeometry relative="1" as="geometry">
            <Array as="points">
              <mxPoint x="-60" y="-358" />
              <mxPoint x="-60" y="-311" />
              <mxPoint x="-52" y="-311" />
            </Array>
          </mxGeometry>
        </mxCell>
        <mxCell id="oqmiWPjRUzapbf_sIHo5-248" value="account_number" style="ellipse;whiteSpace=wrap;html=1;align=center;" vertex="1" parent="1">
          <mxGeometry x="-140" y="-392.5" width="100" height="40" as="geometry" />
        </mxCell>
        <mxCell id="oqmiWPjRUzapbf_sIHo5-250" style="edgeStyle=orthogonalEdgeStyle;rounded=0;orthogonalLoop=1;jettySize=auto;html=1;exitX=1;exitY=0.5;exitDx=0;exitDy=0;entryX=0;entryY=0.5;entryDx=0;entryDy=0;endArrow=none;endFill=0;" edge="1" parent="1" source="oqmiWPjRUzapbf_sIHo5-249" target="oqmiWPjRUzapbf_sIHo5-245">
          <mxGeometry relative="1" as="geometry" />
        </mxCell>
        <mxCell id="oqmiWPjRUzapbf_sIHo5-249" value="cvv2" style="ellipse;whiteSpace=wrap;html=1;align=center;" vertex="1" parent="1">
          <mxGeometry x="-230" y="-270" width="100" height="40" as="geometry" />
        </mxCell>
        <mxCell id="oqmiWPjRUzapbf_sIHo5-257" style="edgeStyle=orthogonalEdgeStyle;rounded=0;orthogonalLoop=1;jettySize=auto;html=1;exitX=0.5;exitY=0;exitDx=0;exitDy=0;entryX=1;entryY=0.5;entryDx=0;entryDy=0;strokeColor=default;align=center;verticalAlign=middle;fontFamily=Helvetica;fontSize=11;fontColor=default;labelBackgroundColor=default;endArrow=ERmany;endFill=0;" edge="1" parent="1" source="oqmiWPjRUzapbf_sIHo5-254" target="oqmiWPjRUzapbf_sIHo5-245">
          <mxGeometry relative="1" as="geometry" />
        </mxCell>
        <mxCell id="oqmiWPjRUzapbf_sIHo5-260" style="edgeStyle=orthogonalEdgeStyle;rounded=0;orthogonalLoop=1;jettySize=auto;html=1;exitX=1;exitY=0.5;exitDx=0;exitDy=0;strokeColor=default;align=center;verticalAlign=middle;fontFamily=Helvetica;fontSize=11;fontColor=default;labelBackgroundColor=default;endArrow=none;endFill=0;" edge="1" parent="1" source="oqmiWPjRUzapbf_sIHo5-254">
          <mxGeometry relative="1" as="geometry">
            <mxPoint x="234" y="-160" as="targetPoint" />
            <Array as="points">
              <mxPoint x="234" y="-180" />
            </Array>
          </mxGeometry>
        </mxCell>
        <mxCell id="oqmiWPjRUzapbf_sIHo5-254" value="has" style="shape=rhombus;perimeter=rhombusPerimeter;whiteSpace=wrap;html=1;align=center;" vertex="1" parent="1">
          <mxGeometry x="7.5" y="-230" width="80" height="40" as="geometry" />
        </mxCell>
        <mxCell id="oqmiWPjRUzapbf_sIHo5-277" value="&lt;span style=&quot;font-size: 12px;&quot;&gt;bank_transaction&lt;/span&gt;" style="rounded=1;arcSize=10;whiteSpace=wrap;html=1;align=center;fontFamily=Helvetica;fontSize=11;fontColor=default;labelBackgroundColor=default;" vertex="1" parent="1">
          <mxGeometry x="-270" y="-190" width="100" height="40" as="geometry" />
        </mxCell>
        <mxCell id="oqmiWPjRUzapbf_sIHo5-278" style="edgeStyle=orthogonalEdgeStyle;rounded=0;orthogonalLoop=1;jettySize=auto;html=1;exitX=1;exitY=0.5;exitDx=0;exitDy=0;entryX=0;entryY=0.5;entryDx=0;entryDy=0;strokeColor=default;align=center;verticalAlign=middle;fontFamily=Helvetica;fontSize=11;fontColor=default;labelBackgroundColor=default;endArrow=none;endFill=0;" edge="1" parent="1" source="oqmiWPjRUzapbf_sIHo5-279" target="oqmiWPjRUzapbf_sIHo5-277">
          <mxGeometry relative="1" as="geometry" />
        </mxCell>
        <mxCell id="oqmiWPjRUzapbf_sIHo5-279" value="&lt;u style=&quot;font-size: 12px;&quot;&gt;transaction_id&lt;/u&gt;" style="ellipse;whiteSpace=wrap;html=1;align=center;fontStyle=4;fontFamily=Helvetica;fontSize=11;fontColor=default;labelBackgroundColor=default;" vertex="1" parent="1">
          <mxGeometry x="-440" y="-190" width="100" height="40" as="geometry" />
        </mxCell>
        <mxCell id="oqmiWPjRUzapbf_sIHo5-280" style="edgeStyle=orthogonalEdgeStyle;rounded=0;orthogonalLoop=1;jettySize=auto;html=1;exitX=1;exitY=0.5;exitDx=0;exitDy=0;entryX=0;entryY=0.25;entryDx=0;entryDy=0;strokeColor=default;align=center;verticalAlign=middle;fontFamily=Helvetica;fontSize=11;fontColor=default;labelBackgroundColor=default;endArrow=none;endFill=0;" edge="1" parent="1" source="oqmiWPjRUzapbf_sIHo5-281" target="oqmiWPjRUzapbf_sIHo5-277">
          <mxGeometry relative="1" as="geometry" />
        </mxCell>
        <mxCell id="oqmiWPjRUzapbf_sIHo5-281" value="&lt;span style=&quot;font-size: 12px;&quot;&gt;amount&lt;/span&gt;" style="ellipse;whiteSpace=wrap;html=1;align=center;fontFamily=Helvetica;fontSize=11;fontColor=default;labelBackgroundColor=default;" vertex="1" parent="1">
          <mxGeometry x="-440" y="-240" width="100" height="40" as="geometry" />
        </mxCell>
        <mxCell id="oqmiWPjRUzapbf_sIHo5-323" style="edgeStyle=orthogonalEdgeStyle;rounded=0;orthogonalLoop=1;jettySize=auto;html=1;exitX=1;exitY=0.5;exitDx=0;exitDy=0;entryX=0.25;entryY=0;entryDx=0;entryDy=0;strokeColor=default;align=center;verticalAlign=middle;fontFamily=Helvetica;fontSize=11;fontColor=default;labelBackgroundColor=default;endArrow=none;endFill=0;" edge="1" parent="1" source="oqmiWPjRUzapbf_sIHo5-283" target="oqmiWPjRUzapbf_sIHo5-277">
          <mxGeometry relative="1" as="geometry" />
        </mxCell>
        <mxCell id="oqmiWPjRUzapbf_sIHo5-283" value="&lt;span style=&quot;font-size: 12px;&quot;&gt;bank_account&lt;/span&gt;" style="ellipse;whiteSpace=wrap;html=1;align=center;fontFamily=Helvetica;fontSize=11;fontColor=default;labelBackgroundColor=default;" vertex="1" parent="1">
          <mxGeometry x="-390" y="-280" width="100" height="40" as="geometry" />
        </mxCell>
        <mxCell id="oqmiWPjRUzapbf_sIHo5-284" style="edgeStyle=orthogonalEdgeStyle;rounded=0;orthogonalLoop=1;jettySize=auto;html=1;exitX=1;exitY=0.5;exitDx=0;exitDy=0;entryX=0;entryY=0.75;entryDx=0;entryDy=0;strokeColor=default;align=center;verticalAlign=middle;fontFamily=Helvetica;fontSize=11;fontColor=default;labelBackgroundColor=default;endArrow=none;endFill=0;" edge="1" parent="1" source="oqmiWPjRUzapbf_sIHo5-285" target="oqmiWPjRUzapbf_sIHo5-277">
          <mxGeometry relative="1" as="geometry" />
        </mxCell>
        <mxCell id="oqmiWPjRUzapbf_sIHo5-285" value="&lt;span style=&quot;font-size: 12px;&quot;&gt;bank_name&lt;/span&gt;" style="ellipse;whiteSpace=wrap;html=1;align=center;fontFamily=Helvetica;fontSize=11;fontColor=default;labelBackgroundColor=default;" vertex="1" parent="1">
          <mxGeometry x="-430" y="-140" width="100" height="40" as="geometry" />
        </mxCell>
        <mxCell id="oqmiWPjRUzapbf_sIHo5-286" value="&lt;span style=&quot;font-size: 12px;&quot;&gt;state&lt;/span&gt;" style="ellipse;whiteSpace=wrap;html=1;align=center;fontFamily=Helvetica;fontSize=11;fontColor=default;labelBackgroundColor=default;" vertex="1" parent="1">
          <mxGeometry x="-410" y="-90" width="100" height="40" as="geometry" />
        </mxCell>
        <mxCell id="oqmiWPjRUzapbf_sIHo5-287" style="edgeStyle=orthogonalEdgeStyle;rounded=0;orthogonalLoop=1;jettySize=auto;html=1;exitX=1;exitY=0;exitDx=0;exitDy=0;entryX=0.124;entryY=1.026;entryDx=0;entryDy=0;entryPerimeter=0;strokeColor=default;align=center;verticalAlign=middle;fontFamily=Helvetica;fontSize=11;fontColor=default;labelBackgroundColor=default;endArrow=none;endFill=0;" edge="1" parent="1" source="oqmiWPjRUzapbf_sIHo5-286" target="oqmiWPjRUzapbf_sIHo5-277">
          <mxGeometry relative="1" as="geometry" />
        </mxCell>
        <mxCell id="oqmiWPjRUzapbf_sIHo5-288" style="edgeStyle=orthogonalEdgeStyle;rounded=0;orthogonalLoop=1;jettySize=auto;html=1;exitX=1;exitY=0;exitDx=0;exitDy=0;entryX=0.25;entryY=1;entryDx=0;entryDy=0;strokeColor=default;align=center;verticalAlign=middle;fontFamily=Helvetica;fontSize=11;fontColor=default;labelBackgroundColor=default;endArrow=none;endFill=0;" edge="1" parent="1" source="oqmiWPjRUzapbf_sIHo5-289" target="oqmiWPjRUzapbf_sIHo5-277">
          <mxGeometry relative="1" as="geometry" />
        </mxCell>
        <mxCell id="oqmiWPjRUzapbf_sIHo5-289" value="type" style="ellipse;whiteSpace=wrap;html=1;align=center;fontFamily=Helvetica;fontSize=11;fontColor=default;labelBackgroundColor=default;" vertex="1" parent="1">
          <mxGeometry x="-310" y="-70" width="100" height="40" as="geometry" />
        </mxCell>
        <mxCell id="oqmiWPjRUzapbf_sIHo5-290" style="edgeStyle=orthogonalEdgeStyle;rounded=0;orthogonalLoop=1;jettySize=auto;html=1;exitX=0;exitY=0;exitDx=0;exitDy=0;entryX=0.75;entryY=1;entryDx=0;entryDy=0;strokeColor=default;align=center;verticalAlign=middle;fontFamily=Helvetica;fontSize=11;fontColor=default;labelBackgroundColor=default;endArrow=none;endFill=0;" edge="1" parent="1" source="oqmiWPjRUzapbf_sIHo5-291" target="oqmiWPjRUzapbf_sIHo5-277">
          <mxGeometry relative="1" as="geometry" />
        </mxCell>
        <mxCell id="oqmiWPjRUzapbf_sIHo5-291" value="date" style="ellipse;whiteSpace=wrap;html=1;align=center;fontFamily=Helvetica;fontSize=11;fontColor=default;labelBackgroundColor=default;" vertex="1" parent="1">
          <mxGeometry x="-220" y="-130" width="100" height="40" as="geometry" />
        </mxCell>
        <mxCell id="oqmiWPjRUzapbf_sIHo5-293" style="edgeStyle=orthogonalEdgeStyle;rounded=0;orthogonalLoop=1;jettySize=auto;html=1;exitX=1;exitY=0.5;exitDx=0;exitDy=0;strokeColor=default;align=center;verticalAlign=middle;fontFamily=Helvetica;fontSize=11;fontColor=default;labelBackgroundColor=default;endArrow=none;endFill=0;entryX=0.081;entryY=-0.012;entryDx=0;entryDy=0;entryPerimeter=0;" edge="1" parent="1" source="oqmiWPjRUzapbf_sIHo5-292" target="oqmiWPjRUzapbf_sIHo5-95">
          <mxGeometry relative="1" as="geometry">
            <mxPoint x="220" y="-170" as="targetPoint" />
            <Array as="points">
              <mxPoint x="25" y="-170" />
              <mxPoint x="228" y="-170" />
            </Array>
          </mxGeometry>
        </mxCell>
        <mxCell id="oqmiWPjRUzapbf_sIHo5-294" style="edgeStyle=orthogonalEdgeStyle;rounded=0;orthogonalLoop=1;jettySize=auto;html=1;exitX=0;exitY=0.5;exitDx=0;exitDy=0;entryX=1;entryY=0.5;entryDx=0;entryDy=0;strokeColor=default;align=center;verticalAlign=middle;fontFamily=Helvetica;fontSize=11;fontColor=default;labelBackgroundColor=default;endArrow=ERmany;endFill=0;" edge="1" parent="1" source="oqmiWPjRUzapbf_sIHo5-292" target="oqmiWPjRUzapbf_sIHo5-277">
          <mxGeometry relative="1" as="geometry" />
        </mxCell>
        <mxCell id="oqmiWPjRUzapbf_sIHo5-292" value="does" style="shape=rhombus;perimeter=rhombusPerimeter;whiteSpace=wrap;html=1;align=center;" vertex="1" parent="1">
          <mxGeometry x="-60" y="-190" width="80" height="40" as="geometry" />
        </mxCell>
        <mxCell id="oqmiWPjRUzapbf_sIHo5-296" style="edgeStyle=orthogonalEdgeStyle;rounded=0;orthogonalLoop=1;jettySize=auto;html=1;exitX=0.5;exitY=0;exitDx=0;exitDy=0;entryX=0.216;entryY=0.895;entryDx=0;entryDy=0;entryPerimeter=0;strokeColor=default;align=center;verticalAlign=middle;fontFamily=Helvetica;fontSize=11;fontColor=default;labelBackgroundColor=default;endArrow=none;endFill=0;" edge="1" parent="1" source="oqmiWPjRUzapbf_sIHo5-119" target="oqmiWPjRUzapbf_sIHo5-114">
          <mxGeometry relative="1" as="geometry">
            <Array as="points">
              <mxPoint x="160" y="-60" />
              <mxPoint x="232" y="-60" />
            </Array>
          </mxGeometry>
        </mxCell>
        <mxCell id="oqmiWPjRUzapbf_sIHo5-300" style="edgeStyle=orthogonalEdgeStyle;rounded=0;orthogonalLoop=1;jettySize=auto;html=1;exitX=0.25;exitY=0;exitDx=0;exitDy=0;entryX=0.237;entryY=0.125;entryDx=0;entryDy=0;entryPerimeter=0;strokeColor=default;align=center;verticalAlign=middle;fontFamily=Helvetica;fontSize=11;fontColor=default;labelBackgroundColor=default;endArrow=none;endFill=0;" edge="1" parent="1" source="oqmiWPjRUzapbf_sIHo5-120" target="oqmiWPjRUzapbf_sIHo5-114">
          <mxGeometry relative="1" as="geometry">
            <Array as="points">
              <mxPoint x="575" y="-59" />
              <mxPoint x="301" y="-59" />
            </Array>
          </mxGeometry>
        </mxCell>
        <mxCell id="oqmiWPjRUzapbf_sIHo5-318" value="ticket" style="rounded=1;arcSize=10;whiteSpace=wrap;html=1;align=center;fontFamily=Helvetica;fontSize=11;fontColor=default;labelBackgroundColor=default;" vertex="1" parent="1">
          <mxGeometry x="-480" y="-10" width="100" height="40" as="geometry" />
        </mxCell>
        <mxCell id="oqmiWPjRUzapbf_sIHo5-322" style="edgeStyle=orthogonalEdgeStyle;rounded=0;orthogonalLoop=1;jettySize=auto;html=1;exitX=0.5;exitY=1;exitDx=0;exitDy=0;entryX=0.896;entryY=-0.004;entryDx=0;entryDy=0;entryPerimeter=0;strokeColor=default;align=center;verticalAlign=middle;fontFamily=Helvetica;fontSize=11;fontColor=default;labelBackgroundColor=default;endArrow=none;endFill=0;" edge="1" parent="1" source="oqmiWPjRUzapbf_sIHo5-117" target="oqmiWPjRUzapbf_sIHo5-119">
          <mxGeometry relative="1" as="geometry" />
        </mxCell>
        <mxCell id="oqmiWPjRUzapbf_sIHo5-326" style="edgeStyle=orthogonalEdgeStyle;rounded=0;orthogonalLoop=1;jettySize=auto;html=1;exitX=1;exitY=0.5;exitDx=0;exitDy=0;entryX=0;entryY=0.5;entryDx=0;entryDy=0;strokeColor=default;align=center;verticalAlign=middle;fontFamily=Helvetica;fontSize=11;fontColor=default;labelBackgroundColor=default;endArrow=none;endFill=0;" edge="1" parent="1" source="oqmiWPjRUzapbf_sIHo5-325" target="oqmiWPjRUzapbf_sIHo5-318">
          <mxGeometry relative="1" as="geometry" />
        </mxCell>
        <mxCell id="oqmiWPjRUzapbf_sIHo5-325" value="&lt;u style=&quot;font-size: 12px;&quot;&gt;ticket_id&lt;/u&gt;" style="ellipse;whiteSpace=wrap;html=1;align=center;fontStyle=4;fontFamily=Helvetica;fontSize=11;fontColor=default;labelBackgroundColor=default;" vertex="1" parent="1">
          <mxGeometry x="-620" y="-10" width="100" height="40" as="geometry" />
        </mxCell>
        <mxCell id="oqmiWPjRUzapbf_sIHo5-328" style="edgeStyle=orthogonalEdgeStyle;rounded=0;orthogonalLoop=1;jettySize=auto;html=1;exitX=1;exitY=0.5;exitDx=0;exitDy=0;entryX=0;entryY=0.25;entryDx=0;entryDy=0;strokeColor=default;align=center;verticalAlign=middle;fontFamily=Helvetica;fontSize=11;fontColor=default;labelBackgroundColor=default;endArrow=none;endFill=0;" edge="1" parent="1" source="oqmiWPjRUzapbf_sIHo5-327" target="oqmiWPjRUzapbf_sIHo5-318">
          <mxGeometry relative="1" as="geometry" />
        </mxCell>
        <mxCell id="oqmiWPjRUzapbf_sIHo5-327" value="&lt;span style=&quot;font-size: 12px;&quot;&gt;message&lt;/span&gt;" style="ellipse;whiteSpace=wrap;html=1;align=center;fontFamily=Helvetica;fontSize=11;fontColor=default;labelBackgroundColor=default;" vertex="1" parent="1">
          <mxGeometry x="-620" y="-60" width="100" height="40" as="geometry" />
        </mxCell>
        <mxCell id="oqmiWPjRUzapbf_sIHo5-330" style="edgeStyle=orthogonalEdgeStyle;rounded=0;orthogonalLoop=1;jettySize=auto;html=1;exitX=1;exitY=0.5;exitDx=0;exitDy=0;entryX=0;entryY=0.75;entryDx=0;entryDy=0;strokeColor=default;align=center;verticalAlign=middle;fontFamily=Helvetica;fontSize=11;fontColor=default;labelBackgroundColor=default;endArrow=none;endFill=0;" edge="1" parent="1" source="oqmiWPjRUzapbf_sIHo5-329" target="oqmiWPjRUzapbf_sIHo5-318">
          <mxGeometry relative="1" as="geometry" />
        </mxCell>
        <mxCell id="oqmiWPjRUzapbf_sIHo5-329" value="&lt;span style=&quot;font-size: 12px;&quot;&gt;priority&lt;/span&gt;" style="ellipse;whiteSpace=wrap;html=1;align=center;fontFamily=Helvetica;fontSize=11;fontColor=default;labelBackgroundColor=default;" vertex="1" parent="1">
          <mxGeometry x="-620" y="40" width="100" height="40" as="geometry" />
        </mxCell>
        <mxCell id="oqmiWPjRUzapbf_sIHo5-332" style="edgeStyle=orthogonalEdgeStyle;rounded=0;orthogonalLoop=1;jettySize=auto;html=1;exitX=0.5;exitY=1;exitDx=0;exitDy=0;entryX=0.25;entryY=0;entryDx=0;entryDy=0;strokeColor=default;align=center;verticalAlign=middle;fontFamily=Helvetica;fontSize=11;fontColor=default;labelBackgroundColor=default;endArrow=none;endFill=0;" edge="1" parent="1" source="oqmiWPjRUzapbf_sIHo5-331" target="oqmiWPjRUzapbf_sIHo5-318">
          <mxGeometry relative="1" as="geometry" />
        </mxCell>
        <mxCell id="oqmiWPjRUzapbf_sIHo5-331" value="&lt;span style=&quot;font-size: 12px;&quot;&gt;type&lt;/span&gt;" style="ellipse;whiteSpace=wrap;html=1;align=center;fontFamily=Helvetica;fontSize=11;fontColor=default;labelBackgroundColor=default;" vertex="1" parent="1">
          <mxGeometry x="-530" y="-90" width="100" height="40" as="geometry" />
        </mxCell>
        <mxCell id="oqmiWPjRUzapbf_sIHo5-336" style="edgeStyle=orthogonalEdgeStyle;rounded=0;orthogonalLoop=1;jettySize=auto;html=1;exitX=1;exitY=0.5;exitDx=0;exitDy=0;strokeColor=default;align=center;verticalAlign=middle;fontFamily=Helvetica;fontSize=11;fontColor=default;labelBackgroundColor=default;endArrow=none;endFill=0;" edge="1" parent="1" source="oqmiWPjRUzapbf_sIHo5-333">
          <mxGeometry relative="1" as="geometry">
            <mxPoint x="220" y="-140" as="targetPoint" />
            <Array as="points">
              <mxPoint x="-110" y="10" />
              <mxPoint x="-110" y="-140" />
            </Array>
          </mxGeometry>
        </mxCell>
        <mxCell id="oqmiWPjRUzapbf_sIHo5-339" style="edgeStyle=orthogonalEdgeStyle;rounded=0;orthogonalLoop=1;jettySize=auto;html=1;exitX=0;exitY=0.5;exitDx=0;exitDy=0;entryX=1;entryY=0.5;entryDx=0;entryDy=0;strokeColor=default;align=center;verticalAlign=middle;fontFamily=Helvetica;fontSize=11;fontColor=default;labelBackgroundColor=default;endArrow=ERmany;endFill=0;" edge="1" parent="1" source="oqmiWPjRUzapbf_sIHo5-333" target="oqmiWPjRUzapbf_sIHo5-318">
          <mxGeometry relative="1" as="geometry" />
        </mxCell>
        <mxCell id="oqmiWPjRUzapbf_sIHo5-333" value="send" style="shape=rhombus;perimeter=rhombusPerimeter;whiteSpace=wrap;html=1;align=center;" vertex="1" parent="1">
          <mxGeometry x="-340" y="-10" width="80" height="40" as="geometry" />
        </mxCell>
        <mxCell id="oqmiWPjRUzapbf_sIHo5-338" style="edgeStyle=orthogonalEdgeStyle;rounded=0;orthogonalLoop=1;jettySize=auto;html=1;exitX=0.5;exitY=0;exitDx=0;exitDy=0;entryX=0.5;entryY=1;entryDx=0;entryDy=0;strokeColor=default;align=center;verticalAlign=middle;fontFamily=Helvetica;fontSize=11;fontColor=default;labelBackgroundColor=default;endArrow=ERmany;endFill=0;" edge="1" parent="1" source="oqmiWPjRUzapbf_sIHo5-334" target="oqmiWPjRUzapbf_sIHo5-318">
          <mxGeometry relative="1" as="geometry" />
        </mxCell>
        <mxCell id="oqmiWPjRUzapbf_sIHo5-341" style="edgeStyle=orthogonalEdgeStyle;rounded=0;orthogonalLoop=1;jettySize=auto;html=1;exitX=1;exitY=0.5;exitDx=0;exitDy=0;strokeColor=default;align=center;verticalAlign=middle;fontFamily=Helvetica;fontSize=11;fontColor=default;labelBackgroundColor=default;endArrow=none;endFill=0;entryX=0.5;entryY=0;entryDx=0;entryDy=0;" edge="1" parent="1" source="oqmiWPjRUzapbf_sIHo5-334" target="oqmiWPjRUzapbf_sIHo5-121">
          <mxGeometry relative="1" as="geometry">
            <mxPoint x="490" y="30" as="targetPoint" />
            <Array as="points">
              <mxPoint x="-80" y="80" />
              <mxPoint x="-80" y="-100" />
              <mxPoint x="490" y="-100" />
            </Array>
          </mxGeometry>
        </mxCell>
        <mxCell id="oqmiWPjRUzapbf_sIHo5-334" value="examine" style="shape=rhombus;perimeter=rhombusPerimeter;whiteSpace=wrap;html=1;align=center;" vertex="1" parent="1">
          <mxGeometry x="-470" y="60" width="80" height="40" as="geometry" />
        </mxCell>
        <mxCell id="oqmiWPjRUzapbf_sIHo5-358" style="edgeStyle=orthogonalEdgeStyle;rounded=0;orthogonalLoop=1;jettySize=auto;html=1;exitX=1;exitY=0.5;exitDx=0;exitDy=0;entryX=0;entryY=0.5;entryDx=0;entryDy=0;strokeColor=default;align=center;verticalAlign=middle;fontFamily=Helvetica;fontSize=11;fontColor=default;labelBackgroundColor=default;endArrow=ERmany;endFill=0;" edge="1" parent="1" source="oqmiWPjRUzapbf_sIHo5-355" target="oqmiWPjRUzapbf_sIHo5-357">
          <mxGeometry relative="1" as="geometry" />
        </mxCell>
        <mxCell id="oqmiWPjRUzapbf_sIHo5-369" style="edgeStyle=orthogonalEdgeStyle;rounded=0;orthogonalLoop=1;jettySize=auto;html=1;exitX=0;exitY=0.5;exitDx=0;exitDy=0;entryX=1;entryY=0.5;entryDx=0;entryDy=0;strokeColor=default;align=center;verticalAlign=middle;fontFamily=Helvetica;fontSize=11;fontColor=default;labelBackgroundColor=default;endArrow=none;endFill=0;" edge="1" parent="1" source="oqmiWPjRUzapbf_sIHo5-355" target="oqmiWPjRUzapbf_sIHo5-119">
          <mxGeometry relative="1" as="geometry">
            <Array as="points">
              <mxPoint x="390" y="60" />
              <mxPoint x="390" />
              <mxPoint x="210" />
            </Array>
          </mxGeometry>
        </mxCell>
        <mxCell id="oqmiWPjRUzapbf_sIHo5-355" value="receive" style="shape=rhombus;perimeter=rhombusPerimeter;whiteSpace=wrap;html=1;align=center;" vertex="1" parent="1">
          <mxGeometry x="440" y="40" width="80" height="40" as="geometry" />
        </mxCell>
        <mxCell id="oqmiWPjRUzapbf_sIHo5-357" value="SMS" style="rounded=1;arcSize=10;whiteSpace=wrap;html=1;align=center;fontFamily=Helvetica;fontSize=11;fontColor=default;labelBackgroundColor=default;" vertex="1" parent="1">
          <mxGeometry x="570" y="107.5" width="100" height="40" as="geometry" />
        </mxCell>
        <mxCell id="oqmiWPjRUzapbf_sIHo5-359" value="&lt;span style=&quot;font-size: 12px;&quot;&gt;type&lt;/span&gt;" style="ellipse;whiteSpace=wrap;html=1;align=center;fontFamily=Helvetica;fontSize=11;fontColor=default;labelBackgroundColor=default;" vertex="1" parent="1">
          <mxGeometry x="520" y="167.5" width="60" height="30" as="geometry" />
        </mxCell>
        <mxCell id="oqmiWPjRUzapbf_sIHo5-360" style="edgeStyle=orthogonalEdgeStyle;rounded=0;orthogonalLoop=1;jettySize=auto;html=1;exitX=0.5;exitY=0;exitDx=0;exitDy=0;strokeColor=default;align=center;verticalAlign=middle;fontFamily=Helvetica;fontSize=11;fontColor=default;labelBackgroundColor=default;endArrow=none;endFill=0;entryX=0.098;entryY=0.991;entryDx=0;entryDy=0;entryPerimeter=0;" edge="1" parent="1" source="oqmiWPjRUzapbf_sIHo5-359" target="oqmiWPjRUzapbf_sIHo5-357">
          <mxGeometry relative="1" as="geometry">
            <mxPoint x="580" y="148.5" as="targetPoint" />
            <Array as="points">
              <mxPoint x="550" y="157.5" />
              <mxPoint x="580" y="157.5" />
              <mxPoint x="580" y="148.5" />
              <mxPoint x="580" y="148.5" />
            </Array>
          </mxGeometry>
        </mxCell>
        <mxCell id="oqmiWPjRUzapbf_sIHo5-362" style="edgeStyle=orthogonalEdgeStyle;rounded=0;orthogonalLoop=1;jettySize=auto;html=1;exitX=0.5;exitY=0;exitDx=0;exitDy=0;entryX=0.5;entryY=1;entryDx=0;entryDy=0;strokeColor=default;align=center;verticalAlign=middle;fontFamily=Helvetica;fontSize=11;fontColor=default;labelBackgroundColor=default;endArrow=none;endFill=0;" edge="1" parent="1" source="oqmiWPjRUzapbf_sIHo5-361" target="oqmiWPjRUzapbf_sIHo5-357">
          <mxGeometry relative="1" as="geometry" />
        </mxCell>
        <mxCell id="oqmiWPjRUzapbf_sIHo5-361" value="&lt;span style=&quot;font-size: 12px;&quot;&gt;content&lt;/span&gt;" style="ellipse;whiteSpace=wrap;html=1;align=center;fontFamily=Helvetica;fontSize=11;fontColor=default;labelBackgroundColor=default;" vertex="1" parent="1">
          <mxGeometry x="590" y="167.5" width="60" height="30" as="geometry" />
        </mxCell>
        <mxCell id="oqmiWPjRUzapbf_sIHo5-364" style="edgeStyle=orthogonalEdgeStyle;rounded=0;orthogonalLoop=1;jettySize=auto;html=1;exitX=0;exitY=0.5;exitDx=0;exitDy=0;entryX=1;entryY=0.75;entryDx=0;entryDy=0;strokeColor=default;align=center;verticalAlign=middle;fontFamily=Helvetica;fontSize=11;fontColor=default;labelBackgroundColor=default;endArrow=none;endFill=0;" edge="1" parent="1" source="oqmiWPjRUzapbf_sIHo5-363" target="oqmiWPjRUzapbf_sIHo5-357">
          <mxGeometry relative="1" as="geometry" />
        </mxCell>
        <mxCell id="oqmiWPjRUzapbf_sIHo5-363" value="&lt;u style=&quot;font-size: 12px;&quot;&gt;SMS_id&lt;/u&gt;" style="ellipse;whiteSpace=wrap;html=1;align=center;fontStyle=4;fontFamily=Helvetica;fontSize=11;fontColor=default;labelBackgroundColor=default;" vertex="1" parent="1">
          <mxGeometry x="700" y="117.5" width="75" height="30" as="geometry" />
        </mxCell>
        <mxCell id="oqmiWPjRUzapbf_sIHo5-366" style="edgeStyle=orthogonalEdgeStyle;rounded=0;orthogonalLoop=1;jettySize=auto;html=1;exitX=0.5;exitY=1;exitDx=0;exitDy=0;entryX=0.5;entryY=0;entryDx=0;entryDy=0;strokeColor=default;align=center;verticalAlign=middle;fontFamily=Helvetica;fontSize=11;fontColor=default;labelBackgroundColor=default;endArrow=ERmany;endFill=0;" edge="1" parent="1" source="oqmiWPjRUzapbf_sIHo5-365" target="oqmiWPjRUzapbf_sIHo5-357">
          <mxGeometry relative="1" as="geometry" />
        </mxCell>
        <mxCell id="oqmiWPjRUzapbf_sIHo5-370" style="edgeStyle=orthogonalEdgeStyle;rounded=0;orthogonalLoop=1;jettySize=auto;html=1;entryX=1;entryY=0.75;entryDx=0;entryDy=0;strokeColor=default;align=center;verticalAlign=middle;fontFamily=Helvetica;fontSize=11;fontColor=default;labelBackgroundColor=default;endArrow=none;endFill=0;" edge="1" parent="1" source="oqmiWPjRUzapbf_sIHo5-365" target="oqmiWPjRUzapbf_sIHo5-121">
          <mxGeometry relative="1" as="geometry" />
        </mxCell>
        <mxCell id="oqmiWPjRUzapbf_sIHo5-365" value="send" style="shape=rhombus;perimeter=rhombusPerimeter;whiteSpace=wrap;html=1;align=center;" vertex="1" parent="1">
          <mxGeometry x="580" y="47.5" width="80" height="40" as="geometry" />
        </mxCell>
        <mxCell id="oqmiWPjRUzapbf_sIHo5-376" style="edgeStyle=orthogonalEdgeStyle;rounded=0;orthogonalLoop=1;jettySize=auto;html=1;exitX=0.5;exitY=0;exitDx=0;exitDy=0;entryX=0.5;entryY=1;entryDx=0;entryDy=0;endArrow=ERmany;endFill=0;" edge="1" parent="1" source="oqmiWPjRUzapbf_sIHo5-377" target="oqmiWPjRUzapbf_sIHo5-378">
          <mxGeometry relative="1" as="geometry" />
        </mxCell>
        <mxCell id="oqmiWPjRUzapbf_sIHo5-384" style="edgeStyle=orthogonalEdgeStyle;rounded=0;orthogonalLoop=1;jettySize=auto;html=1;exitX=0.5;exitY=1;exitDx=0;exitDy=0;entryX=0.5;entryY=0;entryDx=0;entryDy=0;strokeColor=default;align=center;verticalAlign=middle;fontFamily=Helvetica;fontSize=11;fontColor=default;labelBackgroundColor=default;endArrow=none;endFill=0;" edge="1" parent="1" source="oqmiWPjRUzapbf_sIHo5-377" target="oqmiWPjRUzapbf_sIHo5-383">
          <mxGeometry relative="1" as="geometry" />
        </mxCell>
        <mxCell id="oqmiWPjRUzapbf_sIHo5-377" value="enroll" style="shape=rhombus;double=1;perimeter=rhombusPerimeter;whiteSpace=wrap;html=1;align=center;" vertex="1" parent="1">
          <mxGeometry x="-197.5" y="252.5" width="80" height="40" as="geometry" />
        </mxCell>
        <mxCell id="oqmiWPjRUzapbf_sIHo5-378" value="search_history" style="shape=ext;margin=3;double=1;whiteSpace=wrap;html=1;align=center;" vertex="1" parent="1">
          <mxGeometry x="-207.5" y="182.5" width="100" height="40" as="geometry" />
        </mxCell>
        <mxCell id="oqmiWPjRUzapbf_sIHo5-379" style="edgeStyle=orthogonalEdgeStyle;rounded=0;orthogonalLoop=1;jettySize=auto;html=1;exitX=0;exitY=0.5;exitDx=0;exitDy=0;entryX=1;entryY=0.5;entryDx=0;entryDy=0;endArrow=ERmany;endFill=0;" edge="1" parent="1" source="oqmiWPjRUzapbf_sIHo5-380" target="oqmiWPjRUzapbf_sIHo5-378">
          <mxGeometry relative="1" as="geometry" />
        </mxCell>
        <mxCell id="oqmiWPjRUzapbf_sIHo5-382" style="edgeStyle=orthogonalEdgeStyle;rounded=0;orthogonalLoop=1;jettySize=auto;html=1;exitX=1;exitY=0.5;exitDx=0;exitDy=0;entryX=0;entryY=0.5;entryDx=0;entryDy=0;strokeColor=default;align=center;verticalAlign=middle;fontFamily=Helvetica;fontSize=11;fontColor=default;labelBackgroundColor=default;endArrow=none;endFill=0;" edge="1" parent="1" source="oqmiWPjRUzapbf_sIHo5-380" target="oqmiWPjRUzapbf_sIHo5-119">
          <mxGeometry relative="1" as="geometry">
            <Array as="points">
              <mxPoint x="10" y="203" />
              <mxPoint x="10" y="10" />
            </Array>
          </mxGeometry>
        </mxCell>
        <mxCell id="oqmiWPjRUzapbf_sIHo5-380" value="enroll" style="shape=rhombus;double=1;perimeter=rhombusPerimeter;whiteSpace=wrap;html=1;align=center;" vertex="1" parent="1">
          <mxGeometry x="-82.5" y="182.5" width="80" height="40" as="geometry" />
        </mxCell>
        <mxCell id="oqmiWPjRUzapbf_sIHo5-383" value="trip" style="rounded=1;arcSize=10;whiteSpace=wrap;html=1;align=center;fillColor=#f8cecc;strokeColor=#b85450;" vertex="1" parent="1">
          <mxGeometry x="-207.5" y="330" width="100" height="40" as="geometry" />
        </mxCell>
        <mxCell id="oqmiWPjRUzapbf_sIHo5-412" style="edgeStyle=orthogonalEdgeStyle;rounded=0;orthogonalLoop=1;jettySize=auto;html=1;exitX=0;exitY=0.5;exitDx=0;exitDy=0;endArrow=ERmany;endFill=0;entryX=1;entryY=0.25;entryDx=0;entryDy=0;" edge="1" parent="1" source="oqmiWPjRUzapbf_sIHo5-413" target="oqmiWPjRUzapbf_sIHo5-95">
          <mxGeometry relative="1" as="geometry">
            <mxPoint x="560" y="-180" as="targetPoint" />
          </mxGeometry>
        </mxCell>
        <mxCell id="oqmiWPjRUzapbf_sIHo5-413" value="give/receive" style="shape=rhombus;perimeter=rhombusPerimeter;whiteSpace=wrap;html=1;align=center;" vertex="1" parent="1">
          <mxGeometry x="710" y="-450" width="90" height="40" as="geometry" />
        </mxCell>
        <mxCell id="oqmiWPjRUzapbf_sIHo5-414" style="edgeStyle=orthogonalEdgeStyle;rounded=0;orthogonalLoop=1;jettySize=auto;html=1;exitX=1;exitY=0.5;exitDx=0;exitDy=0;entryX=0;entryY=0.5;entryDx=0;entryDy=0;endArrow=ERmany;endFill=0;" edge="1" parent="1" source="oqmiWPjRUzapbf_sIHo5-413" target="oqmiWPjRUzapbf_sIHo5-416">
          <mxGeometry relative="1" as="geometry">
            <mxPoint x="383.8000000000002" y="-481.0799999999995" as="targetPoint" />
          </mxGeometry>
        </mxCell>
        <mxCell id="oqmiWPjRUzapbf_sIHo5-416" value="&lt;span style=&quot;font-size: 12px;&quot;&gt;discount_code&lt;/span&gt;" style="rounded=1;arcSize=10;whiteSpace=wrap;html=1;align=center;fontFamily=Helvetica;fontSize=11;fontColor=default;labelBackgroundColor=default;" vertex="1" parent="1">
          <mxGeometry x="910" y="-450" width="100" height="40" as="geometry" />
        </mxCell>
        <mxCell id="oqmiWPjRUzapbf_sIHo5-418" style="edgeStyle=orthogonalEdgeStyle;rounded=0;orthogonalLoop=1;jettySize=auto;html=1;exitX=0;exitY=0.5;exitDx=0;exitDy=0;entryX=0.5;entryY=1;entryDx=0;entryDy=0;strokeColor=default;align=center;verticalAlign=middle;fontFamily=Helvetica;fontSize=11;fontColor=default;labelBackgroundColor=default;endArrow=none;endFill=0;" edge="1" parent="1" source="oqmiWPjRUzapbf_sIHo5-417" target="oqmiWPjRUzapbf_sIHo5-416">
          <mxGeometry relative="1" as="geometry" />
        </mxCell>
        <mxCell id="oqmiWPjRUzapbf_sIHo5-417" value="" style="triangle;whiteSpace=wrap;html=1;rotation=90;" vertex="1" parent="1">
          <mxGeometry x="942.5" y="-380" width="35" height="80" as="geometry" />
        </mxCell>
        <mxCell id="oqmiWPjRUzapbf_sIHo5-421" style="edgeStyle=orthogonalEdgeStyle;rounded=0;orthogonalLoop=1;jettySize=auto;html=1;exitX=1;exitY=0.5;exitDx=0;exitDy=0;entryX=0.25;entryY=1;entryDx=0;entryDy=0;strokeColor=default;align=center;verticalAlign=middle;fontFamily=Helvetica;fontSize=11;fontColor=default;labelBackgroundColor=default;endArrow=none;endFill=0;" edge="1" parent="1" source="oqmiWPjRUzapbf_sIHo5-420" target="oqmiWPjRUzapbf_sIHo5-416">
          <mxGeometry relative="1" as="geometry" />
        </mxCell>
        <mxCell id="oqmiWPjRUzapbf_sIHo5-420" value="&lt;u&gt;discount_code_id&lt;/u&gt;" style="ellipse;whiteSpace=wrap;html=1;align=center;fontStyle=4;fontFamily=Helvetica;fontSize=11;fontColor=default;labelBackgroundColor=default;" vertex="1" parent="1">
          <mxGeometry x="800" y="-410" width="100" height="40" as="geometry" />
        </mxCell>
        <mxCell id="oqmiWPjRUzapbf_sIHo5-425" style="edgeStyle=orthogonalEdgeStyle;rounded=0;orthogonalLoop=1;jettySize=auto;html=1;exitX=0;exitY=0.5;exitDx=0;exitDy=0;entryX=1;entryY=0.75;entryDx=0;entryDy=0;strokeColor=default;align=center;verticalAlign=middle;fontFamily=Helvetica;fontSize=11;fontColor=default;labelBackgroundColor=default;endArrow=none;endFill=0;" edge="1" parent="1" source="oqmiWPjRUzapbf_sIHo5-422" target="oqmiWPjRUzapbf_sIHo5-416">
          <mxGeometry relative="1" as="geometry">
            <Array as="points">
              <mxPoint x="1100" y="-420" />
            </Array>
          </mxGeometry>
        </mxCell>
        <mxCell id="oqmiWPjRUzapbf_sIHo5-422" value="code" style="ellipse;whiteSpace=wrap;html=1;align=center;fontFamily=Helvetica;fontSize=11;fontColor=default;labelBackgroundColor=default;" vertex="1" parent="1">
          <mxGeometry x="1070" y="-400" width="60" height="30" as="geometry" />
        </mxCell>
        <mxCell id="oqmiWPjRUzapbf_sIHo5-424" style="edgeStyle=orthogonalEdgeStyle;rounded=0;orthogonalLoop=1;jettySize=auto;html=1;exitX=0;exitY=0.5;exitDx=0;exitDy=0;entryX=0.75;entryY=1;entryDx=0;entryDy=0;strokeColor=default;align=center;verticalAlign=middle;fontFamily=Helvetica;fontSize=11;fontColor=default;labelBackgroundColor=default;endArrow=none;endFill=0;" edge="1" parent="1" source="oqmiWPjRUzapbf_sIHo5-423" target="oqmiWPjRUzapbf_sIHo5-416">
          <mxGeometry relative="1" as="geometry" />
        </mxCell>
        <mxCell id="oqmiWPjRUzapbf_sIHo5-423" value="city" style="ellipse;whiteSpace=wrap;html=1;align=center;fontFamily=Helvetica;fontSize=11;fontColor=default;labelBackgroundColor=default;" vertex="1" parent="1">
          <mxGeometry x="1000" y="-400" width="60" height="30" as="geometry" />
        </mxCell>
        <mxCell id="oqmiWPjRUzapbf_sIHo5-426" value="&lt;span style=&quot;font-size: 12px;&quot;&gt;expiration_date&lt;/span&gt;" style="ellipse;whiteSpace=wrap;html=1;align=center;fontFamily=Helvetica;fontSize=11;fontColor=default;labelBackgroundColor=default;" vertex="1" parent="1">
          <mxGeometry x="1050" y="-520" width="100" height="40" as="geometry" />
        </mxCell>
        <mxCell id="oqmiWPjRUzapbf_sIHo5-431" style="edgeStyle=orthogonalEdgeStyle;rounded=0;orthogonalLoop=1;jettySize=auto;html=1;exitX=0;exitY=0.5;exitDx=0;exitDy=0;entryX=1;entryY=0.25;entryDx=0;entryDy=0;strokeColor=default;align=center;verticalAlign=middle;fontFamily=Helvetica;fontSize=11;fontColor=default;labelBackgroundColor=default;endArrow=none;endFill=0;" edge="1" parent="1" source="oqmiWPjRUzapbf_sIHo5-427" target="oqmiWPjRUzapbf_sIHo5-416">
          <mxGeometry relative="1" as="geometry" />
        </mxCell>
        <mxCell id="oqmiWPjRUzapbf_sIHo5-427" value="&lt;span style=&quot;font-size: 12px;&quot;&gt;max_number_of_usage&lt;/span&gt;" style="ellipse;whiteSpace=wrap;html=1;align=center;fontFamily=Helvetica;fontSize=11;fontColor=default;labelBackgroundColor=default;" vertex="1" parent="1">
          <mxGeometry x="1140" y="-480" width="160" height="40" as="geometry" />
        </mxCell>
        <mxCell id="oqmiWPjRUzapbf_sIHo5-428" value="&lt;span style=&quot;font-size: 12px;&quot;&gt;service_type&lt;/span&gt;" style="ellipse;whiteSpace=wrap;html=1;align=center;fontFamily=Helvetica;fontSize=11;fontColor=default;labelBackgroundColor=default;" vertex="1" parent="1">
          <mxGeometry x="920" y="-540" width="100" height="40" as="geometry" />
        </mxCell>
        <mxCell id="oqmiWPjRUzapbf_sIHo5-430" style="edgeStyle=orthogonalEdgeStyle;rounded=0;orthogonalLoop=1;jettySize=auto;html=1;exitX=0.5;exitY=0;exitDx=0;exitDy=0;entryX=1;entryY=0.5;entryDx=0;entryDy=0;strokeColor=default;align=center;verticalAlign=middle;fontFamily=Helvetica;fontSize=11;fontColor=default;labelBackgroundColor=default;endArrow=none;endFill=0;" edge="1" parent="1" source="oqmiWPjRUzapbf_sIHo5-429" target="oqmiWPjRUzapbf_sIHo5-416">
          <mxGeometry relative="1" as="geometry">
            <Array as="points">
              <mxPoint x="1120" y="-430" />
              <mxPoint x="1120" y="-430" />
            </Array>
          </mxGeometry>
        </mxCell>
        <mxCell id="oqmiWPjRUzapbf_sIHo5-429" value="&lt;span style=&quot;font-size: 12px;&quot;&gt;state&lt;/span&gt;" style="ellipse;whiteSpace=wrap;html=1;align=center;fontFamily=Helvetica;fontSize=11;fontColor=default;labelBackgroundColor=default;" vertex="1" parent="1">
          <mxGeometry x="1130" y="-420" width="60" height="30" as="geometry" />
        </mxCell>
        <mxCell id="oqmiWPjRUzapbf_sIHo5-432" style="edgeStyle=orthogonalEdgeStyle;rounded=0;orthogonalLoop=1;jettySize=auto;html=1;exitX=0.5;exitY=1;exitDx=0;exitDy=0;entryX=0.899;entryY=-0.001;entryDx=0;entryDy=0;entryPerimeter=0;strokeColor=default;align=center;verticalAlign=middle;fontFamily=Helvetica;fontSize=11;fontColor=default;labelBackgroundColor=default;endArrow=none;endFill=0;" edge="1" parent="1" source="oqmiWPjRUzapbf_sIHo5-426" target="oqmiWPjRUzapbf_sIHo5-416">
          <mxGeometry relative="1" as="geometry">
            <Array as="points">
              <mxPoint x="1100" y="-470" />
              <mxPoint x="1000" y="-470" />
            </Array>
          </mxGeometry>
        </mxCell>
        <mxCell id="oqmiWPjRUzapbf_sIHo5-433" style="edgeStyle=orthogonalEdgeStyle;rounded=0;orthogonalLoop=1;jettySize=auto;html=1;exitX=0.5;exitY=1;exitDx=0;exitDy=0;entryX=0.601;entryY=-0.023;entryDx=0;entryDy=0;entryPerimeter=0;strokeColor=default;align=center;verticalAlign=middle;fontFamily=Helvetica;fontSize=11;fontColor=default;labelBackgroundColor=default;endArrow=none;endFill=0;" edge="1" parent="1" source="oqmiWPjRUzapbf_sIHo5-428" target="oqmiWPjRUzapbf_sIHo5-416">
          <mxGeometry relative="1" as="geometry" />
        </mxCell>
        <mxCell id="oqmiWPjRUzapbf_sIHo5-439" style="edgeStyle=orthogonalEdgeStyle;rounded=0;orthogonalLoop=1;jettySize=auto;html=1;exitX=0.5;exitY=0;exitDx=0;exitDy=0;entryX=0.5;entryY=1;entryDx=0;entryDy=0;strokeColor=default;align=center;verticalAlign=middle;fontFamily=Helvetica;fontSize=11;fontColor=default;labelBackgroundColor=default;endArrow=none;endFill=0;" edge="1" parent="1" source="oqmiWPjRUzapbf_sIHo5-436" target="oqmiWPjRUzapbf_sIHo5-417">
          <mxGeometry relative="1" as="geometry" />
        </mxCell>
        <mxCell id="oqmiWPjRUzapbf_sIHo5-436" value="&lt;span style=&quot;font-size: 12px;&quot;&gt;percent_discount&lt;/span&gt;" style="rounded=1;arcSize=10;whiteSpace=wrap;html=1;align=center;fontFamily=Helvetica;fontSize=11;fontColor=default;labelBackgroundColor=default;" vertex="1" parent="1">
          <mxGeometry x="830" y="-300" width="100" height="40" as="geometry" />
        </mxCell>
        <mxCell id="oqmiWPjRUzapbf_sIHo5-438" style="edgeStyle=orthogonalEdgeStyle;rounded=0;orthogonalLoop=1;jettySize=auto;html=1;exitX=0.5;exitY=0;exitDx=0;exitDy=0;entryX=0.5;entryY=0;entryDx=0;entryDy=0;strokeColor=default;align=center;verticalAlign=middle;fontFamily=Helvetica;fontSize=11;fontColor=default;labelBackgroundColor=default;endArrow=none;endFill=0;" edge="1" parent="1" source="oqmiWPjRUzapbf_sIHo5-437" target="oqmiWPjRUzapbf_sIHo5-417">
          <mxGeometry relative="1" as="geometry" />
        </mxCell>
        <mxCell id="oqmiWPjRUzapbf_sIHo5-437" value="&lt;span style=&quot;font-size: 12px;&quot;&gt;constant_discount&lt;/span&gt;" style="rounded=1;arcSize=10;whiteSpace=wrap;html=1;align=center;fontFamily=Helvetica;fontSize=11;fontColor=default;labelBackgroundColor=default;" vertex="1" parent="1">
          <mxGeometry x="990" y="-300" width="100" height="40" as="geometry" />
        </mxCell>
        <mxCell id="oqmiWPjRUzapbf_sIHo5-443" style="edgeStyle=orthogonalEdgeStyle;rounded=0;orthogonalLoop=1;jettySize=auto;html=1;exitX=0.5;exitY=0;exitDx=0;exitDy=0;entryX=0.5;entryY=1;entryDx=0;entryDy=0;strokeColor=default;align=center;verticalAlign=middle;fontFamily=Helvetica;fontSize=11;fontColor=default;labelBackgroundColor=default;endArrow=none;endFill=0;" edge="1" parent="1" source="oqmiWPjRUzapbf_sIHo5-440" target="oqmiWPjRUzapbf_sIHo5-436">
          <mxGeometry relative="1" as="geometry" />
        </mxCell>
        <mxCell id="oqmiWPjRUzapbf_sIHo5-440" value="&lt;span style=&quot;font-size: 12px;&quot;&gt;percentage&lt;/span&gt;" style="ellipse;whiteSpace=wrap;html=1;align=center;fontFamily=Helvetica;fontSize=11;fontColor=default;labelBackgroundColor=default;" vertex="1" parent="1">
          <mxGeometry x="830" y="-200" width="100" height="40" as="geometry" />
        </mxCell>
        <mxCell id="oqmiWPjRUzapbf_sIHo5-441" value="&lt;span style=&quot;font-size: 12px;&quot;&gt;amount&lt;/span&gt;" style="ellipse;whiteSpace=wrap;html=1;align=center;fontFamily=Helvetica;fontSize=11;fontColor=default;labelBackgroundColor=default;" vertex="1" parent="1">
          <mxGeometry x="960" y="-200" width="100" height="40" as="geometry" />
        </mxCell>
        <mxCell id="oqmiWPjRUzapbf_sIHo5-446" style="edgeStyle=orthogonalEdgeStyle;rounded=0;orthogonalLoop=1;jettySize=auto;html=1;exitX=0.5;exitY=0;exitDx=0;exitDy=0;entryX=0.75;entryY=1;entryDx=0;entryDy=0;strokeColor=default;align=center;verticalAlign=middle;fontFamily=Helvetica;fontSize=11;fontColor=default;labelBackgroundColor=default;endArrow=none;endFill=0;" edge="1" parent="1" source="oqmiWPjRUzapbf_sIHo5-442" target="oqmiWPjRUzapbf_sIHo5-437">
          <mxGeometry relative="1" as="geometry" />
        </mxCell>
        <mxCell id="oqmiWPjRUzapbf_sIHo5-442" value="&lt;span style=&quot;font-size: 12px;&quot;&gt;min_cost&lt;/span&gt;" style="ellipse;whiteSpace=wrap;html=1;align=center;fontFamily=Helvetica;fontSize=11;fontColor=default;labelBackgroundColor=default;" vertex="1" parent="1">
          <mxGeometry x="1070" y="-220" width="100" height="40" as="geometry" />
        </mxCell>
        <mxCell id="oqmiWPjRUzapbf_sIHo5-445" style="edgeStyle=orthogonalEdgeStyle;rounded=0;orthogonalLoop=1;jettySize=auto;html=1;exitX=0.5;exitY=0;exitDx=0;exitDy=0;strokeColor=default;align=center;verticalAlign=middle;fontFamily=Helvetica;fontSize=11;fontColor=default;labelBackgroundColor=default;endArrow=none;endFill=0;" edge="1" parent="1" source="oqmiWPjRUzapbf_sIHo5-441">
          <mxGeometry relative="1" as="geometry">
            <mxPoint x="1010" y="-260" as="targetPoint" />
          </mxGeometry>
        </mxCell>
      </root>
    </mxGraphModel>
  </diagram>
</mxfile>
